<?xml version="1.0" encoding="UTF-8"?>
<svg xmlns="http://www.w3.org/2000/svg" xmlns:xlink="http://www.w3.org/1999/xlink" width="375pt" height="374.999991pt" viewBox="0 0 375 374.999991" version="1.2">
<defs>
<clipPath id="clip1">
  <path d="M 182.160156 187.496094 L 192.660156 187.496094 L 192.660156 214 L 182.160156 214 Z M 182.160156 187.496094 "/>
</clipPath>
</defs>
<g id="surface1">
<path style=" stroke:none;fill-rule:nonzero;fill:rgb(23.139954%,26.669312%,67.83905%);fill-opacity:1;" d="M 187.5 37.5 C 185.046875 37.5 182.589844 37.558594 180.140625 37.679688 C 177.6875 37.800781 175.242188 37.980469 172.796875 38.222656 C 170.355469 38.464844 167.917969 38.761719 165.492188 39.125 C 163.0625 39.484375 160.644531 39.902344 158.238281 40.382812 C 155.828125 40.859375 153.433594 41.398438 151.054688 41.996094 C 148.671875 42.589844 146.304688 43.246094 143.957031 43.957031 C 141.609375 44.671875 139.277344 45.441406 136.964844 46.269531 C 134.65625 47.09375 132.367188 47.980469 130.097656 48.917969 C 127.828125 49.859375 125.585938 50.851562 123.367188 51.902344 C 121.148438 52.953125 118.957031 54.054688 116.789062 55.210938 C 114.625 56.367188 112.488281 57.578125 110.382812 58.839844 C 108.277344 60.101562 106.207031 61.414062 104.164062 62.78125 C 102.125 64.144531 100.117188 65.554688 98.144531 67.019531 C 96.171875 68.480469 94.238281 69.992188 92.339844 71.546875 C 90.445312 73.105469 88.585938 74.707031 86.765625 76.355469 C 84.945312 78.007812 83.167969 79.699219 81.433594 81.433594 C 79.699219 83.167969 78.007812 84.945312 76.355469 86.765625 C 74.707031 88.585938 73.105469 90.445312 71.546875 92.339844 C 69.992188 94.238281 68.480469 96.171875 67.019531 98.144531 C 65.554688 100.117188 64.144531 102.125 62.78125 104.164062 C 61.414062 106.207031 60.101562 108.277344 58.839844 110.382812 C 57.578125 112.488281 56.367188 114.625 55.210938 116.789062 C 54.054688 118.957031 52.953125 121.148438 51.902344 123.367188 C 50.851562 125.585938 49.859375 127.828125 48.917969 130.097656 C 47.980469 132.367188 47.09375 134.65625 46.269531 136.964844 C 45.441406 139.277344 44.671875 141.609375 43.957031 143.957031 C 43.246094 146.304688 42.589844 148.671875 41.996094 151.054688 C 41.398438 153.433594 40.859375 155.828125 40.382812 158.238281 C 39.902344 160.644531 39.484375 163.0625 39.125 165.492188 C 38.761719 167.917969 38.464844 170.355469 38.222656 172.796875 C 37.980469 175.242188 37.800781 177.6875 37.679688 180.140625 C 37.558594 182.589844 37.5 185.046875 37.5 187.5 C 37.5 189.953125 37.558594 192.410156 37.679688 194.859375 C 37.800781 197.3125 37.980469 199.757812 38.222656 202.203125 C 38.464844 204.644531 38.761719 207.082031 39.125 209.507812 C 39.484375 211.9375 39.902344 214.355469 40.382812 216.761719 C 40.859375 219.171875 41.398438 221.566406 41.996094 223.945312 C 42.589844 226.328125 43.246094 228.695312 43.957031 231.042969 C 44.671875 233.390625 45.441406 235.722656 46.269531 238.035156 C 47.09375 240.34375 47.980469 242.632812 48.917969 244.902344 C 49.859375 247.171875 50.851562 249.414062 51.902344 251.632812 C 52.953125 253.851562 54.054688 256.042969 55.210938 258.210938 C 56.367188 260.375 57.578125 262.511719 58.839844 264.617188 C 60.101562 266.722656 61.414062 268.792969 62.78125 270.835938 C 64.144531 272.875 65.554688 274.882812 67.019531 276.855469 C 68.480469 278.828125 69.992188 280.761719 71.546875 282.660156 C 73.105469 284.554688 74.707031 286.414062 76.355469 288.234375 C 78.007812 290.050781 79.699219 291.832031 81.433594 293.566406 C 83.167969 295.300781 84.945312 296.992188 86.765625 298.644531 C 88.585938 300.292969 90.445312 301.894531 92.339844 303.453125 C 94.238281 305.007812 96.171875 306.519531 98.144531 307.980469 C 100.117188 309.445312 102.125 310.855469 104.164062 312.21875 C 106.207031 313.585938 108.277344 314.898438 110.382812 316.160156 C 112.488281 317.421875 114.625 318.632812 116.789062 319.789062 C 118.957031 320.945312 121.148438 322.046875 123.367188 323.097656 C 125.585938 324.148438 127.828125 325.140625 130.097656 326.082031 C 132.367188 327.019531 134.65625 327.90625 136.964844 328.730469 C 139.277344 329.558594 141.609375 330.328125 143.957031 331.039062 C 146.304688 331.753906 148.671875 332.40625 151.054688 333.003906 C 153.433594 333.601562 155.828125 334.140625 158.238281 334.617188 C 160.644531 335.097656 163.0625 335.515625 165.492188 335.875 C 167.917969 336.238281 170.355469 336.535156 172.796875 336.777344 C 175.242188 337.019531 177.6875 337.199219 180.140625 337.320312 C 182.589844 337.441406 185.046875 337.5 187.5 337.5 C 189.953125 337.5 192.410156 337.441406 194.859375 337.320312 C 197.3125 337.199219 199.757812 337.019531 202.203125 336.777344 C 204.644531 336.535156 207.082031 336.238281 209.507812 335.875 C 211.9375 335.515625 214.355469 335.097656 216.761719 334.617188 C 219.171875 334.140625 221.566406 333.601562 223.945312 333.003906 C 226.328125 332.40625 228.695312 331.753906 231.042969 331.039062 C 233.390625 330.328125 235.722656 329.558594 238.035156 328.730469 C 240.34375 327.90625 242.632812 327.019531 244.902344 326.082031 C 247.171875 325.140625 249.414062 324.148438 251.632812 323.097656 C 253.851562 322.046875 256.042969 320.945312 258.210938 319.789062 C 260.375 318.632812 262.511719 317.421875 264.617188 316.160156 C 266.722656 314.898438 268.792969 313.585938 270.835938 312.21875 C 272.875 310.855469 274.882812 309.445312 276.855469 307.980469 C 278.828125 306.519531 280.761719 305.007812 282.660156 303.453125 C 284.554688 301.894531 286.414062 300.292969 288.234375 298.644531 C 290.050781 296.992188 291.832031 295.300781 293.566406 293.566406 C 295.300781 291.832031 296.992188 290.050781 298.644531 288.234375 C 300.292969 286.414062 301.894531 284.554688 303.453125 282.660156 C 305.007812 280.761719 306.519531 278.828125 307.980469 276.855469 C 309.445312 274.882812 310.855469 272.875 312.21875 270.835938 C 313.585938 268.792969 314.898438 266.722656 316.160156 264.617188 C 317.421875 262.507812 318.632812 260.375 319.789062 258.210938 C 320.945312 256.042969 322.046875 253.851562 323.097656 251.632812 C 324.148438 249.414062 325.140625 247.171875 326.082031 244.902344 C 327.019531 242.632812 327.90625 240.34375 328.730469 238.035156 C 329.558594 235.722656 330.328125 233.390625 331.039062 231.042969 C 331.753906 228.695312 332.40625 226.328125 333.003906 223.945312 C 333.601562 221.566406 334.140625 219.171875 334.617188 216.761719 C 335.097656 214.355469 335.515625 211.9375 335.875 209.507812 C 336.238281 207.082031 336.535156 204.644531 336.777344 202.203125 C 337.019531 199.757812 337.199219 197.3125 337.320312 194.859375 C 337.441406 192.410156 337.5 189.953125 337.5 187.5 C 337.5 185.046875 337.441406 182.589844 337.320312 180.140625 C 337.199219 177.6875 337.019531 175.242188 336.777344 172.796875 C 336.535156 170.355469 336.238281 167.917969 335.875 165.492188 C 335.515625 163.0625 335.097656 160.644531 334.617188 158.238281 C 334.140625 155.828125 333.601562 153.433594 333.003906 151.054688 C 332.40625 148.671875 331.753906 146.304688 331.039062 143.957031 C 330.328125 141.609375 329.558594 139.277344 328.730469 136.964844 C 327.90625 134.65625 327.019531 132.367188 326.082031 130.097656 C 325.140625 127.828125 324.148438 125.585938 323.097656 123.367188 C 322.046875 121.148438 320.945312 118.957031 319.789062 116.789062 C 318.632812 114.625 317.421875 112.488281 316.160156 110.382812 C 314.898438 108.277344 313.585938 106.207031 312.21875 104.164062 C 310.855469 102.125 309.445312 100.117188 307.980469 98.144531 C 306.519531 96.171875 305.007812 94.238281 303.453125 92.339844 C 301.894531 90.445312 300.292969 88.585938 298.644531 86.765625 C 296.992188 84.945312 295.300781 83.167969 293.566406 81.433594 C 291.832031 79.699219 290.050781 78.007812 288.234375 76.355469 C 286.414062 74.707031 284.554688 73.105469 282.660156 71.546875 C 280.761719 69.992188 278.828125 68.480469 276.855469 67.019531 C 274.882812 65.554688 272.875 64.144531 270.835938 62.78125 C 268.792969 61.414062 266.722656 60.101562 264.617188 58.839844 C 262.511719 57.578125 260.375 56.367188 258.210938 55.210938 C 256.042969 54.054688 253.851562 52.953125 251.632812 51.902344 C 249.414062 50.851562 247.171875 49.859375 244.902344 48.917969 C 242.632812 47.980469 240.34375 47.09375 238.035156 46.269531 C 235.722656 45.441406 233.390625 44.671875 231.042969 43.957031 C 228.695312 43.246094 226.328125 42.589844 223.945312 41.996094 C 221.566406 41.398438 219.171875 40.859375 216.761719 40.382812 C 214.355469 39.902344 211.9375 39.484375 209.507812 39.125 C 207.082031 38.761719 204.644531 38.464844 202.203125 38.222656 C 199.757812 37.980469 197.3125 37.800781 194.859375 37.679688 C 192.410156 37.558594 189.953125 37.5 187.5 37.5 Z M 187.5 37.5 "/>
<path style=" stroke:none;fill-rule:nonzero;fill:rgb(96.078491%,92.939758%,88.62915%);fill-opacity:1;" d="M 242.667969 128.175781 L 238.902344 125.90625 L 246.492188 113.425781 L 252.523438 120.179688 L 256.9375 112.730469 L 262.121094 119.941406 L 267.011719 112.949219 L 275.488281 124.078125 L 271.976562 126.730469 L 267.160156 120.417969 L 262.175781 127.554688 L 257.304688 120.765625 L 253.242188 127.589844 L 247.175781 120.800781 Z M 242.667969 128.175781 "/>
<path style=" stroke:none;fill-rule:nonzero;fill:rgb(96.078491%,92.939758%,88.62915%);fill-opacity:1;" d="M 100.515625 128.175781 L 96.746094 125.90625 L 104.339844 113.425781 L 110.371094 120.179688 L 114.785156 112.730469 L 119.96875 119.941406 L 124.859375 112.949219 L 133.335938 124.078125 L 129.824219 126.730469 L 125.007812 120.417969 L 120.023438 127.554688 L 115.152344 120.765625 L 111.089844 127.589844 L 105.019531 120.800781 Z M 100.515625 128.175781 "/>
<g clip-path="url(#clip1)" clip-rule="nonzero">
<path style=" stroke:none;fill-rule:nonzero;fill:rgb(96.078491%,92.939758%,88.62915%);fill-opacity:1;" d="M 190.878906 212.574219 C 192.007812 211.515625 192.660156 209.980469 192.660156 208.371094 L 192.660156 187.5625 L 182.160156 187.5625 L 182.160156 208.371094 C 182.160156 209.980469 182.8125 211.515625 183.941406 212.574219 C 185.925781 214.433594 188.890625 214.433594 190.878906 212.574219 Z M 190.878906 212.574219 "/>
</g>
<path style=" stroke:none;fill-rule:nonzero;fill:rgb(96.078491%,92.939758%,88.62915%);fill-opacity:1;" d="M 106.328125 168.332031 C 105.699219 168.332031 105.078125 168.394531 104.460938 168.515625 C 103.84375 168.636719 103.242188 168.820312 102.660156 169.0625 C 102.082031 169.300781 101.527344 169.597656 101.003906 169.945312 C 100.480469 170.296875 99.996094 170.695312 99.550781 171.136719 C 99.105469 171.582031 98.710938 172.066406 98.359375 172.589844 C 98.011719 173.113281 97.714844 173.667969 97.472656 174.246094 C 97.234375 174.828125 97.050781 175.429688 96.929688 176.046875 C 96.804688 176.664062 96.746094 177.285156 96.746094 177.914062 C 96.746094 178.546875 96.804688 179.167969 96.929688 179.785156 C 97.050781 180.402344 97.234375 181.003906 97.472656 181.582031 C 97.714844 182.164062 98.011719 182.71875 98.359375 183.242188 C 98.710938 183.765625 99.105469 184.246094 99.550781 184.691406 C 99.996094 185.136719 100.480469 185.535156 101.003906 185.882812 C 101.527344 186.234375 102.082031 186.53125 102.660156 186.769531 C 103.242188 187.011719 103.84375 187.191406 104.460938 187.316406 C 105.078125 187.4375 105.699219 187.5 106.328125 187.5 C 106.957031 187.5 107.582031 187.4375 108.199219 187.316406 C 108.816406 187.191406 109.414062 187.011719 109.996094 186.769531 C 110.578125 186.53125 111.128906 186.234375 111.652344 185.882812 C 112.175781 185.535156 112.660156 185.136719 113.105469 184.691406 C 113.550781 184.246094 113.949219 183.765625 114.296875 183.242188 C 114.648438 182.71875 114.941406 182.164062 115.183594 181.582031 C 115.425781 181.003906 115.605469 180.402344 115.730469 179.785156 C 115.851562 179.167969 115.914062 178.546875 115.914062 177.914062 C 115.914062 177.285156 115.851562 176.664062 115.730469 176.046875 C 115.605469 175.429688 115.425781 174.828125 115.183594 174.246094 C 114.941406 173.667969 114.648438 173.113281 114.296875 172.589844 C 113.949219 172.066406 113.550781 171.582031 113.105469 171.136719 C 112.660156 170.695312 112.175781 170.296875 111.652344 169.945312 C 111.128906 169.597656 110.578125 169.300781 109.996094 169.0625 C 109.414062 168.820312 108.816406 168.636719 108.199219 168.515625 C 107.582031 168.394531 106.957031 168.332031 106.328125 168.332031 Z M 106.328125 168.332031 "/>
<path style=" stroke:none;fill-rule:nonzero;fill:rgb(96.078491%,92.939758%,88.62915%);fill-opacity:1;" d="M 265.90625 168.332031 C 265.277344 168.332031 264.652344 168.394531 264.035156 168.515625 C 263.417969 168.636719 262.820312 168.820312 262.238281 169.0625 C 261.65625 169.300781 261.105469 169.597656 260.582031 169.945312 C 260.058594 170.296875 259.574219 170.695312 259.128906 171.136719 C 258.683594 171.582031 258.285156 172.066406 257.9375 172.589844 C 257.585938 173.113281 257.292969 173.667969 257.050781 174.246094 C 256.8125 174.828125 256.628906 175.429688 256.507812 176.046875 C 256.382812 176.664062 256.320312 177.285156 256.320312 177.914062 C 256.320312 178.546875 256.382812 179.167969 256.507812 179.785156 C 256.628906 180.402344 256.8125 181.003906 257.050781 181.582031 C 257.292969 182.164062 257.585938 182.71875 257.9375 183.242188 C 258.285156 183.765625 258.683594 184.246094 259.128906 184.691406 C 259.574219 185.136719 260.058594 185.535156 260.582031 185.882812 C 261.105469 186.234375 261.65625 186.53125 262.238281 186.769531 C 262.820312 187.011719 263.417969 187.191406 264.035156 187.316406 C 264.652344 187.4375 265.277344 187.5 265.90625 187.5 C 266.535156 187.5 267.160156 187.4375 267.777344 187.316406 C 268.394531 187.191406 268.992188 187.011719 269.574219 186.769531 C 270.15625 186.53125 270.707031 186.234375 271.230469 185.882812 C 271.753906 185.535156 272.238281 185.136719 272.683594 184.691406 C 273.128906 184.246094 273.527344 183.765625 273.875 183.242188 C 274.226562 182.71875 274.519531 182.164062 274.761719 181.582031 C 275 181.003906 275.183594 180.402344 275.304688 179.785156 C 275.429688 179.167969 275.492188 178.546875 275.492188 177.914062 C 275.492188 177.285156 275.429688 176.664062 275.304688 176.046875 C 275.183594 175.429688 275 174.828125 274.761719 174.246094 C 274.519531 173.667969 274.226562 173.113281 273.875 172.589844 C 273.527344 172.066406 273.128906 171.582031 272.683594 171.136719 C 272.238281 170.695312 271.753906 170.296875 271.230469 169.945312 C 270.707031 169.597656 270.15625 169.300781 269.574219 169.0625 C 268.992188 168.820312 268.394531 168.636719 267.777344 168.515625 C 267.160156 168.394531 266.535156 168.332031 265.90625 168.332031 Z M 265.90625 168.332031 "/>
<path style=" stroke:none;fill-rule:nonzero;fill:rgb(96.078491%,92.939758%,88.62915%);fill-opacity:1;" d="M 187.5 260.339844 C 186.871094 260.339844 186.246094 260.402344 185.628906 260.523438 C 185.011719 260.648438 184.414062 260.828125 183.832031 261.070312 C 183.25 261.3125 182.699219 261.605469 182.175781 261.957031 C 181.652344 262.304688 181.167969 262.703125 180.722656 263.148438 C 180.277344 263.59375 179.878906 264.078125 179.53125 264.601562 C 179.179688 265.125 178.886719 265.675781 178.644531 266.257812 C 178.40625 266.839844 178.222656 267.4375 178.101562 268.054688 C 177.976562 268.671875 177.914062 269.296875 177.914062 269.925781 C 177.914062 270.554688 177.976562 271.175781 178.101562 271.792969 C 178.222656 272.410156 178.40625 273.011719 178.644531 273.59375 C 178.886719 274.171875 179.179688 274.726562 179.53125 275.25 C 179.878906 275.773438 180.277344 276.257812 180.722656 276.703125 C 181.167969 277.148438 181.652344 277.542969 182.175781 277.894531 C 182.699219 278.242188 183.25 278.539062 183.832031 278.78125 C 184.414062 279.019531 185.011719 279.203125 185.628906 279.324219 C 186.246094 279.449219 186.871094 279.507812 187.5 279.507812 C 188.128906 279.507812 188.753906 279.449219 189.371094 279.324219 C 189.988281 279.203125 190.585938 279.019531 191.167969 278.78125 C 191.75 278.539062 192.300781 278.242188 192.824219 277.894531 C 193.347656 277.542969 193.832031 277.148438 194.277344 276.703125 C 194.722656 276.257812 195.121094 275.773438 195.46875 275.25 C 195.820312 274.726562 196.113281 274.171875 196.355469 273.59375 C 196.59375 273.011719 196.777344 272.410156 196.898438 271.792969 C 197.023438 271.175781 197.085938 270.554688 197.085938 269.925781 C 197.085938 269.296875 197.023438 268.671875 196.898438 268.054688 C 196.777344 267.4375 196.59375 266.839844 196.355469 266.257812 C 196.113281 265.675781 195.820312 265.125 195.46875 264.601562 C 195.121094 264.078125 194.722656 263.59375 194.277344 263.148438 C 193.832031 262.703125 193.347656 262.304688 192.824219 261.957031 C 192.300781 261.605469 191.75 261.3125 191.167969 261.070312 C 190.585938 260.828125 189.988281 260.648438 189.371094 260.523438 C 188.753906 260.402344 188.128906 260.339844 187.5 260.339844 Z M 187.5 260.339844 "/>
</g>
</svg>
