<?xml version="1.0" encoding="UTF-8"?>
<svg xmlns="http://www.w3.org/2000/svg" xmlns:xlink="http://www.w3.org/1999/xlink" width="375pt" height="374.999991pt" viewBox="0 0 375 374.999991" version="1.2">
<g id="surface1">
<path style=" stroke:none;fill-rule:nonzero;fill:rgb(81.959534%,43.528748%,29.798889%);fill-opacity:1;" d="M 187.5 37.5 C 185.046875 37.5 182.589844 37.558594 180.140625 37.679688 C 177.6875 37.800781 175.242188 37.980469 172.796875 38.222656 C 170.355469 38.464844 167.917969 38.761719 165.492188 39.125 C 163.0625 39.484375 160.644531 39.902344 158.238281 40.382812 C 155.828125 40.859375 153.433594 41.398438 151.054688 41.996094 C 148.671875 42.589844 146.304688 43.246094 143.957031 43.957031 C 141.609375 44.671875 139.277344 45.441406 136.964844 46.269531 C 134.65625 47.09375 132.367188 47.980469 130.097656 48.917969 C 127.828125 49.859375 125.585938 50.851562 123.367188 51.902344 C 121.148438 52.953125 118.957031 54.054688 116.789062 55.210938 C 114.625 56.367188 112.488281 57.578125 110.382812 58.839844 C 108.277344 60.101562 106.207031 61.414062 104.164062 62.78125 C 102.125 64.144531 100.117188 65.554688 98.144531 67.019531 C 96.171875 68.480469 94.238281 69.992188 92.339844 71.546875 C 90.445312 73.105469 88.585938 74.707031 86.765625 76.355469 C 84.945312 78.007812 83.167969 79.699219 81.433594 81.433594 C 79.699219 83.167969 78.007812 84.945312 76.355469 86.765625 C 74.707031 88.585938 73.105469 90.445312 71.546875 92.339844 C 69.992188 94.238281 68.480469 96.171875 67.019531 98.144531 C 65.554688 100.117188 64.144531 102.125 62.78125 104.164062 C 61.414062 106.207031 60.101562 108.277344 58.839844 110.382812 C 57.578125 112.488281 56.367188 114.625 55.210938 116.789062 C 54.054688 118.957031 52.953125 121.148438 51.902344 123.367188 C 50.851562 125.585938 49.859375 127.828125 48.917969 130.097656 C 47.980469 132.367188 47.09375 134.65625 46.269531 136.964844 C 45.441406 139.277344 44.671875 141.609375 43.957031 143.957031 C 43.246094 146.304688 42.589844 148.671875 41.996094 151.054688 C 41.398438 153.433594 40.859375 155.828125 40.382812 158.238281 C 39.902344 160.644531 39.484375 163.0625 39.125 165.492188 C 38.761719 167.917969 38.464844 170.355469 38.222656 172.796875 C 37.980469 175.242188 37.800781 177.6875 37.679688 180.140625 C 37.558594 182.589844 37.5 185.046875 37.5 187.5 C 37.5 189.953125 37.558594 192.410156 37.679688 194.859375 C 37.800781 197.3125 37.980469 199.757812 38.222656 202.203125 C 38.464844 204.644531 38.761719 207.082031 39.125 209.507812 C 39.484375 211.9375 39.902344 214.355469 40.382812 216.761719 C 40.859375 219.171875 41.398438 221.566406 41.996094 223.945312 C 42.589844 226.328125 43.246094 228.695312 43.957031 231.042969 C 44.671875 233.390625 45.441406 235.722656 46.269531 238.035156 C 47.09375 240.34375 47.980469 242.632812 48.917969 244.902344 C 49.859375 247.171875 50.851562 249.414062 51.902344 251.632812 C 52.953125 253.851562 54.054688 256.042969 55.210938 258.210938 C 56.367188 260.375 57.578125 262.511719 58.839844 264.617188 C 60.101562 266.722656 61.414062 268.792969 62.78125 270.835938 C 64.144531 272.875 65.554688 274.882812 67.019531 276.855469 C 68.480469 278.828125 69.992188 280.761719 71.546875 282.660156 C 73.105469 284.554688 74.707031 286.414062 76.355469 288.234375 C 78.007812 290.050781 79.699219 291.832031 81.433594 293.566406 C 83.167969 295.300781 84.945312 296.992188 86.765625 298.644531 C 88.585938 300.292969 90.445312 301.894531 92.339844 303.453125 C 94.238281 305.007812 96.171875 306.519531 98.144531 307.980469 C 100.117188 309.445312 102.125 310.855469 104.164062 312.21875 C 106.207031 313.585938 108.277344 314.898438 110.382812 316.160156 C 112.488281 317.421875 114.625 318.632812 116.789062 319.789062 C 118.957031 320.945312 121.148438 322.046875 123.367188 323.097656 C 125.585938 324.148438 127.828125 325.140625 130.097656 326.082031 C 132.367188 327.019531 134.65625 327.90625 136.964844 328.730469 C 139.277344 329.558594 141.609375 330.328125 143.957031 331.039062 C 146.304688 331.753906 148.671875 332.40625 151.054688 333.003906 C 153.433594 333.601562 155.828125 334.140625 158.238281 334.617188 C 160.644531 335.097656 163.0625 335.515625 165.492188 335.875 C 167.917969 336.238281 170.355469 336.535156 172.796875 336.777344 C 175.242188 337.019531 177.6875 337.199219 180.140625 337.320312 C 182.589844 337.441406 185.046875 337.5 187.5 337.5 C 189.953125 337.5 192.410156 337.441406 194.859375 337.320312 C 197.3125 337.199219 199.757812 337.019531 202.203125 336.777344 C 204.644531 336.535156 207.082031 336.238281 209.507812 335.875 C 211.9375 335.515625 214.355469 335.097656 216.761719 334.617188 C 219.171875 334.140625 221.566406 333.601562 223.945312 333.003906 C 226.328125 332.40625 228.695312 331.753906 231.042969 331.039062 C 233.390625 330.328125 235.722656 329.558594 238.035156 328.730469 C 240.34375 327.90625 242.632812 327.019531 244.902344 326.082031 C 247.171875 325.140625 249.414062 324.148438 251.632812 323.097656 C 253.851562 322.046875 256.042969 320.945312 258.210938 319.789062 C 260.375 318.632812 262.511719 317.421875 264.617188 316.160156 C 266.722656 314.898438 268.792969 313.585938 270.835938 312.21875 C 272.875 310.855469 274.882812 309.445312 276.855469 307.980469 C 278.828125 306.519531 280.761719 305.007812 282.660156 303.453125 C 284.554688 301.894531 286.414062 300.292969 288.234375 298.644531 C 290.050781 296.992188 291.832031 295.300781 293.566406 293.566406 C 295.300781 291.832031 296.992188 290.050781 298.644531 288.234375 C 300.292969 286.414062 301.894531 284.554688 303.453125 282.660156 C 305.007812 280.761719 306.519531 278.828125 307.980469 276.855469 C 309.445312 274.882812 310.855469 272.875 312.21875 270.835938 C 313.585938 268.792969 314.898438 266.722656 316.160156 264.617188 C 317.421875 262.507812 318.632812 260.375 319.789062 258.210938 C 320.945312 256.042969 322.046875 253.851562 323.097656 251.632812 C 324.148438 249.414062 325.140625 247.171875 326.082031 244.902344 C 327.019531 242.632812 327.90625 240.34375 328.730469 238.035156 C 329.558594 235.722656 330.328125 233.390625 331.039062 231.042969 C 331.753906 228.695312 332.40625 226.328125 333.003906 223.945312 C 333.601562 221.566406 334.140625 219.171875 334.617188 216.761719 C 335.097656 214.355469 335.515625 211.9375 335.875 209.507812 C 336.238281 207.082031 336.535156 204.644531 336.777344 202.203125 C 337.019531 199.757812 337.199219 197.3125 337.320312 194.859375 C 337.441406 192.410156 337.5 189.953125 337.5 187.5 C 337.5 185.046875 337.441406 182.589844 337.320312 180.140625 C 337.199219 177.6875 337.019531 175.242188 336.777344 172.796875 C 336.535156 170.355469 336.238281 167.917969 335.875 165.492188 C 335.515625 163.0625 335.097656 160.644531 334.617188 158.238281 C 334.140625 155.828125 333.601562 153.433594 333.003906 151.054688 C 332.40625 148.671875 331.753906 146.304688 331.039062 143.957031 C 330.328125 141.609375 329.558594 139.277344 328.730469 136.964844 C 327.90625 134.65625 327.019531 132.367188 326.082031 130.097656 C 325.140625 127.828125 324.148438 125.585938 323.097656 123.367188 C 322.046875 121.148438 320.945312 118.957031 319.789062 116.789062 C 318.632812 114.625 317.421875 112.488281 316.160156 110.382812 C 314.898438 108.277344 313.585938 106.207031 312.21875 104.164062 C 310.855469 102.125 309.445312 100.117188 307.980469 98.144531 C 306.519531 96.171875 305.007812 94.238281 303.453125 92.339844 C 301.894531 90.445312 300.292969 88.585938 298.644531 86.765625 C 296.992188 84.945312 295.300781 83.167969 293.566406 81.433594 C 291.832031 79.699219 290.050781 78.007812 288.234375 76.355469 C 286.414062 74.707031 284.554688 73.105469 282.660156 71.546875 C 280.761719 69.992188 278.828125 68.480469 276.855469 67.019531 C 274.882812 65.554688 272.875 64.144531 270.835938 62.78125 C 268.792969 61.414062 266.722656 60.101562 264.617188 58.839844 C 262.511719 57.578125 260.375 56.367188 258.210938 55.210938 C 256.042969 54.054688 253.851562 52.953125 251.632812 51.902344 C 249.414062 50.851562 247.171875 49.859375 244.902344 48.917969 C 242.632812 47.980469 240.34375 47.09375 238.035156 46.269531 C 235.722656 45.441406 233.390625 44.671875 231.042969 43.957031 C 228.695312 43.246094 226.328125 42.589844 223.945312 41.996094 C 221.566406 41.398438 219.171875 40.859375 216.761719 40.382812 C 214.355469 39.902344 211.9375 39.484375 209.507812 39.125 C 207.082031 38.761719 204.644531 38.464844 202.203125 38.222656 C 199.757812 37.980469 197.3125 37.800781 194.859375 37.679688 C 192.410156 37.558594 189.953125 37.5 187.5 37.5 Z M 187.5 37.5 "/>
<path style=" stroke:none;fill-rule:nonzero;fill:rgb(96.078491%,92.939758%,88.62915%);fill-opacity:1;" d="M 173.4375 187.5 L 187.5 206.375 L 201.5625 187.5 Z M 173.4375 187.5 "/>
<path style=" stroke:none;fill-rule:nonzero;fill:rgb(96.078491%,92.939758%,88.62915%);fill-opacity:1;" d="M 106.328125 157.164062 C 105.574219 157.164062 104.824219 157.238281 104.082031 157.386719 C 103.339844 157.535156 102.617188 157.753906 101.917969 158.042969 C 101.21875 158.332031 100.554688 158.6875 99.925781 159.109375 C 99.296875 159.527344 98.714844 160.007812 98.179688 160.542969 C 97.644531 161.078125 97.167969 161.660156 96.746094 162.289062 C 96.324219 162.917969 95.96875 163.582031 95.679688 164.28125 C 95.390625 164.980469 95.171875 165.699219 95.023438 166.441406 C 94.878906 167.183594 94.804688 167.933594 94.804688 168.691406 C 94.804688 169.449219 94.878906 170.199219 95.023438 170.941406 C 95.171875 171.683594 95.390625 172.402344 95.679688 173.101562 C 95.96875 173.800781 96.324219 174.464844 96.746094 175.09375 C 97.167969 175.722656 97.644531 176.308594 98.179688 176.839844 C 98.714844 177.375 99.296875 177.855469 99.925781 178.273438 C 100.554688 178.695312 101.21875 179.050781 101.917969 179.339844 C 102.617188 179.628906 103.339844 179.847656 104.082031 179.996094 C 104.824219 180.144531 105.574219 180.21875 106.328125 180.21875 C 107.085938 180.21875 107.835938 180.144531 108.578125 179.996094 C 109.320312 179.847656 110.039062 179.628906 110.738281 179.339844 C 111.4375 179.050781 112.101562 178.695312 112.734375 178.273438 C 113.363281 177.855469 113.945312 177.375 114.480469 176.839844 C 115.015625 176.308594 115.492188 175.722656 115.914062 175.09375 C 116.332031 174.464844 116.6875 173.800781 116.976562 173.101562 C 117.265625 172.402344 117.484375 171.683594 117.632812 170.941406 C 117.78125 170.199219 117.855469 169.449219 117.855469 168.691406 C 117.855469 167.933594 117.78125 167.183594 117.632812 166.441406 C 117.484375 165.699219 117.265625 164.980469 116.976562 164.28125 C 116.6875 163.582031 116.332031 162.917969 115.914062 162.289062 C 115.492188 161.660156 115.015625 161.078125 114.480469 160.542969 C 113.945312 160.007812 113.363281 159.527344 112.734375 159.109375 C 112.101562 158.6875 111.4375 158.332031 110.738281 158.042969 C 110.039062 157.753906 109.320312 157.535156 108.578125 157.386719 C 107.835938 157.238281 107.085938 157.164062 106.328125 157.164062 Z M 106.328125 157.164062 "/>
<path style=" stroke:none;fill-rule:nonzero;fill:rgb(96.078491%,92.939758%,88.62915%);fill-opacity:1;" d="M 265.90625 157.164062 C 265.148438 157.164062 264.398438 157.238281 263.65625 157.386719 C 262.914062 157.535156 262.195312 157.753906 261.496094 158.042969 C 260.796875 158.332031 260.132812 158.6875 259.503906 159.109375 C 258.875 159.527344 258.292969 160.007812 257.757812 160.542969 C 257.222656 161.078125 256.742188 161.660156 256.324219 162.289062 C 255.902344 162.917969 255.546875 163.582031 255.257812 164.28125 C 254.96875 164.980469 254.75 165.699219 254.601562 166.441406 C 254.453125 167.183594 254.378906 167.933594 254.378906 168.691406 C 254.378906 169.449219 254.453125 170.199219 254.601562 170.941406 C 254.75 171.683594 254.96875 172.402344 255.257812 173.101562 C 255.546875 173.800781 255.902344 174.464844 256.324219 175.09375 C 256.742188 175.722656 257.222656 176.308594 257.757812 176.839844 C 258.292969 177.375 258.875 177.855469 259.503906 178.273438 C 260.132812 178.695312 260.796875 179.050781 261.496094 179.339844 C 262.195312 179.628906 262.914062 179.847656 263.65625 179.996094 C 264.398438 180.144531 265.148438 180.21875 265.90625 180.21875 C 266.664062 180.21875 267.414062 180.144531 268.15625 179.996094 C 268.898438 179.847656 269.617188 179.628906 270.316406 179.339844 C 271.015625 179.050781 271.679688 178.695312 272.308594 178.273438 C 272.9375 177.855469 273.519531 177.375 274.054688 176.839844 C 274.589844 176.308594 275.070312 175.722656 275.488281 175.09375 C 275.910156 174.464844 276.265625 173.800781 276.554688 173.101562 C 276.84375 172.402344 277.0625 171.683594 277.210938 170.941406 C 277.359375 170.199219 277.433594 169.449219 277.433594 168.691406 C 277.433594 167.933594 277.359375 167.183594 277.210938 166.441406 C 277.0625 165.699219 276.84375 164.980469 276.554688 164.28125 C 276.265625 163.582031 275.910156 162.917969 275.488281 162.289062 C 275.070312 161.660156 274.589844 161.078125 274.054688 160.542969 C 273.519531 160.007812 272.9375 159.527344 272.308594 159.109375 C 271.679688 158.6875 271.015625 158.332031 270.316406 158.042969 C 269.617188 157.753906 268.898438 157.535156 268.15625 157.386719 C 267.414062 157.238281 266.664062 157.164062 265.90625 157.164062 Z M 265.90625 157.164062 "/>
<path style=" stroke:none;fill-rule:nonzero;fill:rgb(96.078491%,92.939758%,88.62915%);fill-opacity:1;" d="M 171.429688 263.800781 L 167.257812 261.289062 L 175.660156 247.480469 L 182.332031 254.953125 L 187.214844 246.710938 L 192.953125 254.6875 L 198.363281 246.953125 L 207.742188 259.265625 L 203.855469 262.203125 L 198.527344 255.214844 L 193.011719 263.113281 L 187.621094 255.601562 L 183.125 263.152344 L 176.414062 255.640625 Z M 171.429688 263.800781 "/>
<path style=" stroke:none;fill-rule:nonzero;fill:rgb(96.078491%,92.939758%,88.62915%);fill-opacity:1;" d="M 253.082031 143.820312 C 252.394531 143.820312 251.707031 143.675781 251.019531 143.390625 C 248.328125 142.242188 247.070312 139.148438 248.214844 136.453125 C 251.21875 129.285156 258.175781 124.667969 265.933594 124.667969 C 273.691406 124.667969 280.648438 129.285156 283.683594 136.453125 C 284.828125 139.148438 283.570312 142.273438 280.878906 143.390625 C 278.1875 144.535156 275.066406 143.273438 273.949219 140.578125 C 272.578125 137.367188 269.425781 135.277344 265.933594 135.277344 C 262.441406 135.277344 259.320312 137.367188 257.949219 140.578125 C 257.117188 142.585938 255.140625 143.820312 253.082031 143.820312 Z M 253.082031 143.820312 "/>
<path style=" stroke:none;fill-rule:nonzero;fill:rgb(96.078491%,92.939758%,88.62915%);fill-opacity:1;" d="M 93.503906 143.820312 C 92.816406 143.820312 92.128906 143.675781 91.441406 143.390625 C 88.75 142.242188 87.492188 139.148438 88.636719 136.453125 C 91.644531 129.285156 98.597656 124.667969 106.359375 124.667969 C 114.117188 124.667969 121.074219 129.285156 124.109375 136.453125 C 125.253906 139.148438 123.992188 142.273438 121.300781 143.390625 C 118.609375 144.535156 115.492188 143.273438 114.375 140.578125 C 113 137.367188 109.851562 135.277344 106.359375 135.277344 C 102.863281 135.277344 99.746094 137.367188 98.371094 140.578125 C 97.539062 142.585938 95.566406 143.820312 93.503906 143.820312 Z M 93.503906 143.820312 "/>
</g>
</svg>
