<?xml version="1.0" encoding="UTF-8"?>
<svg xmlns="http://www.w3.org/2000/svg" xmlns:xlink="http://www.w3.org/1999/xlink" width="375pt" height="374.999991pt" viewBox="0 0 375 374.999991" version="1.2">
<g id="surface1">
<path style=" stroke:none;fill-rule:nonzero;fill:rgb(98.039246%,79.998779%,79.998779%);fill-opacity:1;" d="M 187.5 37.5 C 185.046875 37.5 182.589844 37.558594 180.140625 37.679688 C 177.6875 37.800781 175.242188 37.980469 172.796875 38.222656 C 170.355469 38.464844 167.917969 38.761719 165.492188 39.125 C 163.0625 39.484375 160.644531 39.902344 158.238281 40.382812 C 155.828125 40.859375 153.433594 41.398438 151.054688 41.996094 C 148.671875 42.589844 146.304688 43.246094 143.957031 43.957031 C 141.609375 44.671875 139.277344 45.441406 136.964844 46.269531 C 134.65625 47.09375 132.367188 47.980469 130.097656 48.917969 C 127.828125 49.859375 125.585938 50.851562 123.367188 51.902344 C 121.148438 52.953125 118.957031 54.054688 116.789062 55.210938 C 114.625 56.367188 112.488281 57.578125 110.382812 58.839844 C 108.277344 60.101562 106.207031 61.414062 104.164062 62.78125 C 102.125 64.144531 100.117188 65.554688 98.144531 67.019531 C 96.171875 68.480469 94.238281 69.992188 92.339844 71.546875 C 90.445312 73.105469 88.585938 74.707031 86.765625 76.355469 C 84.945312 78.007812 83.167969 79.699219 81.433594 81.433594 C 79.699219 83.167969 78.007812 84.945312 76.355469 86.765625 C 74.707031 88.585938 73.105469 90.445312 71.546875 92.339844 C 69.992188 94.238281 68.480469 96.171875 67.019531 98.144531 C 65.554688 100.117188 64.144531 102.125 62.78125 104.164062 C 61.414062 106.207031 60.101562 108.277344 58.839844 110.382812 C 57.578125 112.488281 56.367188 114.625 55.210938 116.789062 C 54.054688 118.957031 52.953125 121.148438 51.902344 123.367188 C 50.851562 125.585938 49.859375 127.828125 48.917969 130.097656 C 47.980469 132.367188 47.09375 134.65625 46.269531 136.964844 C 45.441406 139.277344 44.671875 141.609375 43.957031 143.957031 C 43.246094 146.304688 42.589844 148.671875 41.996094 151.054688 C 41.398438 153.433594 40.859375 155.828125 40.382812 158.238281 C 39.902344 160.644531 39.484375 163.0625 39.125 165.492188 C 38.761719 167.917969 38.464844 170.355469 38.222656 172.796875 C 37.980469 175.242188 37.800781 177.6875 37.679688 180.140625 C 37.558594 182.589844 37.5 185.046875 37.5 187.5 C 37.5 189.953125 37.558594 192.410156 37.679688 194.859375 C 37.800781 197.3125 37.980469 199.757812 38.222656 202.203125 C 38.464844 204.644531 38.761719 207.082031 39.125 209.507812 C 39.484375 211.9375 39.902344 214.355469 40.382812 216.761719 C 40.859375 219.171875 41.398438 221.566406 41.996094 223.945312 C 42.589844 226.328125 43.246094 228.695312 43.957031 231.042969 C 44.671875 233.390625 45.441406 235.722656 46.269531 238.035156 C 47.09375 240.34375 47.980469 242.632812 48.917969 244.902344 C 49.859375 247.171875 50.851562 249.414062 51.902344 251.632812 C 52.953125 253.851562 54.054688 256.042969 55.210938 258.210938 C 56.367188 260.375 57.578125 262.511719 58.839844 264.617188 C 60.101562 266.722656 61.414062 268.792969 62.78125 270.835938 C 64.144531 272.875 65.554688 274.882812 67.019531 276.855469 C 68.480469 278.828125 69.992188 280.761719 71.546875 282.660156 C 73.105469 284.554688 74.707031 286.414062 76.355469 288.234375 C 78.007812 290.050781 79.699219 291.832031 81.433594 293.566406 C 83.167969 295.300781 84.945312 296.992188 86.765625 298.644531 C 88.585938 300.292969 90.445312 301.894531 92.339844 303.453125 C 94.238281 305.007812 96.171875 306.519531 98.144531 307.980469 C 100.117188 309.445312 102.125 310.855469 104.164062 312.21875 C 106.207031 313.585938 108.277344 314.898438 110.382812 316.160156 C 112.488281 317.421875 114.625 318.632812 116.789062 319.789062 C 118.957031 320.945312 121.148438 322.046875 123.367188 323.097656 C 125.585938 324.148438 127.828125 325.140625 130.097656 326.082031 C 132.367188 327.019531 134.65625 327.90625 136.964844 328.730469 C 139.277344 329.558594 141.609375 330.328125 143.957031 331.039062 C 146.304688 331.753906 148.671875 332.40625 151.054688 333.003906 C 153.433594 333.601562 155.828125 334.140625 158.238281 334.617188 C 160.644531 335.097656 163.0625 335.515625 165.492188 335.875 C 167.917969 336.238281 170.355469 336.535156 172.796875 336.777344 C 175.242188 337.019531 177.6875 337.199219 180.140625 337.320312 C 182.589844 337.441406 185.046875 337.5 187.5 337.5 C 189.953125 337.5 192.410156 337.441406 194.859375 337.320312 C 197.3125 337.199219 199.757812 337.019531 202.203125 336.777344 C 204.644531 336.535156 207.082031 336.238281 209.507812 335.875 C 211.9375 335.515625 214.355469 335.097656 216.761719 334.617188 C 219.171875 334.140625 221.566406 333.601562 223.945312 333.003906 C 226.328125 332.40625 228.695312 331.753906 231.042969 331.039062 C 233.390625 330.328125 235.722656 329.558594 238.035156 328.730469 C 240.34375 327.90625 242.632812 327.019531 244.902344 326.082031 C 247.171875 325.140625 249.414062 324.148438 251.632812 323.097656 C 253.851562 322.046875 256.042969 320.945312 258.210938 319.789062 C 260.375 318.632812 262.511719 317.421875 264.617188 316.160156 C 266.722656 314.898438 268.792969 313.585938 270.835938 312.21875 C 272.875 310.855469 274.882812 309.445312 276.855469 307.980469 C 278.828125 306.519531 280.761719 305.007812 282.660156 303.453125 C 284.554688 301.894531 286.414062 300.292969 288.234375 298.644531 C 290.050781 296.992188 291.832031 295.300781 293.566406 293.566406 C 295.300781 291.832031 296.992188 290.050781 298.644531 288.234375 C 300.292969 286.414062 301.894531 284.554688 303.453125 282.660156 C 305.007812 280.761719 306.519531 278.828125 307.980469 276.855469 C 309.445312 274.882812 310.855469 272.875 312.21875 270.835938 C 313.585938 268.792969 314.898438 266.722656 316.160156 264.617188 C 317.421875 262.507812 318.632812 260.375 319.789062 258.210938 C 320.945312 256.042969 322.046875 253.851562 323.097656 251.632812 C 324.148438 249.414062 325.140625 247.171875 326.082031 244.902344 C 327.019531 242.632812 327.90625 240.34375 328.730469 238.035156 C 329.558594 235.722656 330.328125 233.390625 331.039062 231.042969 C 331.753906 228.695312 332.40625 226.328125 333.003906 223.945312 C 333.601562 221.566406 334.140625 219.171875 334.617188 216.761719 C 335.097656 214.355469 335.515625 211.9375 335.875 209.507812 C 336.238281 207.082031 336.535156 204.644531 336.777344 202.203125 C 337.019531 199.757812 337.199219 197.3125 337.320312 194.859375 C 337.441406 192.410156 337.5 189.953125 337.5 187.5 C 337.5 185.046875 337.441406 182.589844 337.320312 180.140625 C 337.199219 177.6875 337.019531 175.242188 336.777344 172.796875 C 336.535156 170.355469 336.238281 167.917969 335.875 165.492188 C 335.515625 163.0625 335.097656 160.644531 334.617188 158.238281 C 334.140625 155.828125 333.601562 153.433594 333.003906 151.054688 C 332.40625 148.671875 331.753906 146.304688 331.039062 143.957031 C 330.328125 141.609375 329.558594 139.277344 328.730469 136.964844 C 327.90625 134.65625 327.019531 132.367188 326.082031 130.097656 C 325.140625 127.828125 324.148438 125.585938 323.097656 123.367188 C 322.046875 121.148438 320.945312 118.957031 319.789062 116.789062 C 318.632812 114.625 317.421875 112.488281 316.160156 110.382812 C 314.898438 108.277344 313.585938 106.207031 312.21875 104.164062 C 310.855469 102.125 309.445312 100.117188 307.980469 98.144531 C 306.519531 96.171875 305.007812 94.238281 303.453125 92.339844 C 301.894531 90.445312 300.292969 88.585938 298.644531 86.765625 C 296.992188 84.945312 295.300781 83.167969 293.566406 81.433594 C 291.832031 79.699219 290.050781 78.007812 288.234375 76.355469 C 286.414062 74.707031 284.554688 73.105469 282.660156 71.546875 C 280.761719 69.992188 278.828125 68.480469 276.855469 67.019531 C 274.882812 65.554688 272.875 64.144531 270.835938 62.78125 C 268.792969 61.414062 266.722656 60.101562 264.617188 58.839844 C 262.511719 57.578125 260.375 56.367188 258.210938 55.210938 C 256.042969 54.054688 253.851562 52.953125 251.632812 51.902344 C 249.414062 50.851562 247.171875 49.859375 244.902344 48.917969 C 242.632812 47.980469 240.34375 47.09375 238.035156 46.269531 C 235.722656 45.441406 233.390625 44.671875 231.042969 43.957031 C 228.695312 43.246094 226.328125 42.589844 223.945312 41.996094 C 221.566406 41.398438 219.171875 40.859375 216.761719 40.382812 C 214.355469 39.902344 211.9375 39.484375 209.507812 39.125 C 207.082031 38.761719 204.644531 38.464844 202.203125 38.222656 C 199.757812 37.980469 197.3125 37.800781 194.859375 37.679688 C 192.410156 37.558594 189.953125 37.5 187.5 37.5 Z M 187.5 37.5 "/>
<path style=" stroke:none;fill-rule:nonzero;fill:rgb(96.078491%,92.939758%,88.62915%);fill-opacity:1;" d="M 93.808594 143.699219 L 90.5625 141.742188 L 97.105469 130.984375 L 102.304688 136.804688 L 106.109375 130.386719 L 110.578125 136.601562 L 114.792969 130.574219 L 122.097656 140.164062 L 119.070312 142.453125 L 114.917969 137.011719 L 110.625 143.164062 L 106.425781 137.3125 L 102.921875 143.195312 L 97.691406 137.34375 Z M 93.808594 143.699219 "/>
<path style=" stroke:none;fill-rule:nonzero;fill:rgb(96.078491%,92.939758%,88.62915%);fill-opacity:1;" d="M 253.386719 143.699219 L 250.136719 141.742188 L 256.683594 130.984375 L 261.882812 136.804688 L 265.683594 130.386719 L 270.152344 136.601562 L 274.367188 130.574219 L 281.671875 140.164062 L 278.648438 142.453125 L 274.496094 137.011719 L 270.199219 143.164062 L 266 137.3125 L 262.5 143.195312 L 257.269531 137.34375 Z M 253.386719 143.699219 "/>
<path style=" stroke:none;fill-rule:nonzero;fill:rgb(96.078491%,92.939758%,88.62915%);fill-opacity:1;" d="M 182.886719 215.0625 L 176.675781 214.023438 L 179.636719 196.277344 L 190 200.738281 L 192.25 192.75 L 198.308594 194.472656 L 194.101562 209.375 L 184.523438 205.253906 Z M 182.886719 215.0625 "/>
<path style=" stroke:none;fill-rule:nonzero;fill:rgb(96.078491%,92.939758%,88.62915%);fill-opacity:1;" d="M 97.582031 187.539062 C 97.113281 187.539062 96.644531 187.441406 96.175781 187.246094 C 94.339844 186.464844 93.480469 184.351562 94.261719 182.515625 C 96.3125 177.625 101.058594 174.476562 106.347656 174.476562 C 111.640625 174.476562 116.382812 177.625 118.453125 182.515625 C 119.234375 184.351562 118.375 186.484375 116.539062 187.246094 C 114.707031 188.027344 112.578125 187.167969 111.816406 185.328125 C 110.878906 183.140625 108.730469 181.710938 106.347656 181.710938 C 103.964844 181.710938 101.839844 183.140625 100.902344 185.328125 C 100.335938 186.699219 98.988281 187.539062 97.582031 187.539062 Z M 97.582031 187.539062 "/>
<path style=" stroke:none;fill-rule:nonzero;fill:rgb(96.078491%,92.939758%,88.62915%);fill-opacity:1;" d="M 257.160156 187.539062 C 256.691406 187.539062 256.222656 187.441406 255.753906 187.246094 C 253.917969 186.464844 253.058594 184.351562 253.839844 182.515625 C 255.890625 177.625 260.632812 174.476562 265.925781 174.476562 C 271.21875 174.476562 275.960938 177.625 278.03125 182.515625 C 278.8125 184.351562 277.953125 186.484375 276.117188 187.246094 C 274.28125 188.027344 272.152344 187.167969 271.394531 185.328125 C 270.457031 183.140625 268.308594 181.710938 265.925781 181.710938 C 263.542969 181.710938 261.414062 183.140625 260.476562 185.328125 C 259.910156 186.699219 258.566406 187.539062 257.160156 187.539062 Z M 257.160156 187.539062 "/>
<path style=" stroke:none;fill-rule:nonzero;fill:rgb(96.078491%,92.939758%,88.62915%);fill-opacity:1;" d="M 167.574219 265.582031 L 207.429688 265.582031 L 207.429688 272.289062 L 167.574219 272.289062 Z M 167.574219 265.582031 "/>
</g>
</svg>
