<?xml version="1.0" encoding="UTF-8"?>
<svg xmlns="http://www.w3.org/2000/svg" xmlns:xlink="http://www.w3.org/1999/xlink" width="375pt" height="374.999991pt" viewBox="0 0 375 374.999991" version="1.2">
<defs>
<clipPath id="clip1">
  <path d="M 182.160156 187.496094 L 192.660156 187.496094 L 192.660156 214 L 182.160156 214 Z M 182.160156 187.496094 "/>
</clipPath>
<clipPath id="clip2">
  <path d="M 168.726562 256.402344 L 206.226562 256.402344 L 206.226562 276.652344 L 168.726562 276.652344 Z M 168.726562 256.402344 "/>
</clipPath>
</defs>
<g id="surface1">
<path style=" stroke:none;fill-rule:nonzero;fill:rgb(37.649536%,5.099487%,0%);fill-opacity:1;" d="M 187.5 37.5 C 185.046875 37.5 182.589844 37.558594 180.140625 37.679688 C 177.6875 37.800781 175.242188 37.980469 172.796875 38.222656 C 170.355469 38.464844 167.917969 38.761719 165.492188 39.125 C 163.0625 39.484375 160.644531 39.902344 158.238281 40.382812 C 155.828125 40.859375 153.433594 41.398438 151.054688 41.996094 C 148.671875 42.589844 146.304688 43.246094 143.957031 43.957031 C 141.609375 44.671875 139.277344 45.441406 136.964844 46.269531 C 134.65625 47.09375 132.367188 47.980469 130.097656 48.917969 C 127.828125 49.859375 125.585938 50.851562 123.367188 51.902344 C 121.148438 52.953125 118.957031 54.054688 116.789062 55.210938 C 114.625 56.367188 112.488281 57.578125 110.382812 58.839844 C 108.277344 60.101562 106.207031 61.414062 104.164062 62.78125 C 102.125 64.144531 100.117188 65.554688 98.144531 67.019531 C 96.171875 68.480469 94.238281 69.992188 92.339844 71.546875 C 90.445312 73.105469 88.585938 74.707031 86.765625 76.355469 C 84.945312 78.007812 83.167969 79.699219 81.433594 81.433594 C 79.699219 83.167969 78.007812 84.945312 76.355469 86.765625 C 74.707031 88.585938 73.105469 90.445312 71.546875 92.339844 C 69.992188 94.238281 68.480469 96.171875 67.019531 98.144531 C 65.554688 100.117188 64.144531 102.125 62.78125 104.164062 C 61.414062 106.207031 60.101562 108.277344 58.839844 110.382812 C 57.578125 112.488281 56.367188 114.625 55.210938 116.789062 C 54.054688 118.957031 52.953125 121.148438 51.902344 123.367188 C 50.851562 125.585938 49.859375 127.828125 48.917969 130.097656 C 47.980469 132.367188 47.09375 134.65625 46.269531 136.964844 C 45.441406 139.277344 44.671875 141.609375 43.957031 143.957031 C 43.246094 146.304688 42.589844 148.671875 41.996094 151.054688 C 41.398438 153.433594 40.859375 155.828125 40.382812 158.238281 C 39.902344 160.644531 39.484375 163.0625 39.125 165.492188 C 38.761719 167.917969 38.464844 170.355469 38.222656 172.796875 C 37.980469 175.242188 37.800781 177.6875 37.679688 180.140625 C 37.558594 182.589844 37.5 185.046875 37.5 187.5 C 37.5 189.953125 37.558594 192.410156 37.679688 194.859375 C 37.800781 197.3125 37.980469 199.757812 38.222656 202.203125 C 38.464844 204.644531 38.761719 207.082031 39.125 209.507812 C 39.484375 211.9375 39.902344 214.355469 40.382812 216.761719 C 40.859375 219.171875 41.398438 221.566406 41.996094 223.945312 C 42.589844 226.328125 43.246094 228.695312 43.957031 231.042969 C 44.671875 233.390625 45.441406 235.722656 46.269531 238.035156 C 47.09375 240.34375 47.980469 242.632812 48.917969 244.902344 C 49.859375 247.171875 50.851562 249.414062 51.902344 251.632812 C 52.953125 253.851562 54.054688 256.042969 55.210938 258.210938 C 56.367188 260.375 57.578125 262.511719 58.839844 264.617188 C 60.101562 266.722656 61.414062 268.792969 62.78125 270.835938 C 64.144531 272.875 65.554688 274.882812 67.019531 276.855469 C 68.480469 278.828125 69.992188 280.761719 71.546875 282.660156 C 73.105469 284.554688 74.707031 286.414062 76.355469 288.234375 C 78.007812 290.050781 79.699219 291.832031 81.433594 293.566406 C 83.167969 295.300781 84.945312 296.992188 86.765625 298.644531 C 88.585938 300.292969 90.445312 301.894531 92.339844 303.453125 C 94.238281 305.007812 96.171875 306.519531 98.144531 307.980469 C 100.117188 309.445312 102.125 310.855469 104.164062 312.21875 C 106.207031 313.585938 108.277344 314.898438 110.382812 316.160156 C 112.488281 317.421875 114.625 318.632812 116.789062 319.789062 C 118.957031 320.945312 121.148438 322.046875 123.367188 323.097656 C 125.585938 324.148438 127.828125 325.140625 130.097656 326.082031 C 132.367188 327.019531 134.65625 327.90625 136.964844 328.730469 C 139.277344 329.558594 141.609375 330.328125 143.957031 331.039062 C 146.304688 331.753906 148.671875 332.40625 151.054688 333.003906 C 153.433594 333.601562 155.828125 334.140625 158.238281 334.617188 C 160.644531 335.097656 163.0625 335.515625 165.492188 335.875 C 167.917969 336.238281 170.355469 336.535156 172.796875 336.777344 C 175.242188 337.019531 177.6875 337.199219 180.140625 337.320312 C 182.589844 337.441406 185.046875 337.5 187.5 337.5 C 189.953125 337.5 192.410156 337.441406 194.859375 337.320312 C 197.3125 337.199219 199.757812 337.019531 202.203125 336.777344 C 204.644531 336.535156 207.082031 336.238281 209.507812 335.875 C 211.9375 335.515625 214.355469 335.097656 216.761719 334.617188 C 219.171875 334.140625 221.566406 333.601562 223.945312 333.003906 C 226.328125 332.40625 228.695312 331.753906 231.042969 331.039062 C 233.390625 330.328125 235.722656 329.558594 238.035156 328.730469 C 240.34375 327.90625 242.632812 327.019531 244.902344 326.082031 C 247.171875 325.140625 249.414062 324.148438 251.632812 323.097656 C 253.851562 322.046875 256.042969 320.945312 258.210938 319.789062 C 260.375 318.632812 262.511719 317.421875 264.617188 316.160156 C 266.722656 314.898438 268.792969 313.585938 270.835938 312.21875 C 272.875 310.855469 274.882812 309.445312 276.855469 307.980469 C 278.828125 306.519531 280.761719 305.007812 282.660156 303.453125 C 284.554688 301.894531 286.414062 300.292969 288.234375 298.644531 C 290.050781 296.992188 291.832031 295.300781 293.566406 293.566406 C 295.300781 291.832031 296.992188 290.050781 298.644531 288.234375 C 300.292969 286.414062 301.894531 284.554688 303.453125 282.660156 C 305.007812 280.761719 306.519531 278.828125 307.980469 276.855469 C 309.445312 274.882812 310.855469 272.875 312.21875 270.835938 C 313.585938 268.792969 314.898438 266.722656 316.160156 264.617188 C 317.421875 262.507812 318.632812 260.375 319.789062 258.210938 C 320.945312 256.042969 322.046875 253.851562 323.097656 251.632812 C 324.148438 249.414062 325.140625 247.171875 326.082031 244.902344 C 327.019531 242.632812 327.90625 240.34375 328.730469 238.035156 C 329.558594 235.722656 330.328125 233.390625 331.039062 231.042969 C 331.753906 228.695312 332.40625 226.328125 333.003906 223.945312 C 333.601562 221.566406 334.140625 219.171875 334.617188 216.761719 C 335.097656 214.355469 335.515625 211.9375 335.875 209.507812 C 336.238281 207.082031 336.535156 204.644531 336.777344 202.203125 C 337.019531 199.757812 337.199219 197.3125 337.320312 194.859375 C 337.441406 192.410156 337.5 189.953125 337.5 187.5 C 337.5 185.046875 337.441406 182.589844 337.320312 180.140625 C 337.199219 177.6875 337.019531 175.242188 336.777344 172.796875 C 336.535156 170.355469 336.238281 167.917969 335.875 165.492188 C 335.515625 163.0625 335.097656 160.644531 334.617188 158.238281 C 334.140625 155.828125 333.601562 153.433594 333.003906 151.054688 C 332.40625 148.671875 331.753906 146.304688 331.039062 143.957031 C 330.328125 141.609375 329.558594 139.277344 328.730469 136.964844 C 327.90625 134.65625 327.019531 132.367188 326.082031 130.097656 C 325.140625 127.828125 324.148438 125.585938 323.097656 123.367188 C 322.046875 121.148438 320.945312 118.957031 319.789062 116.789062 C 318.632812 114.625 317.421875 112.488281 316.160156 110.382812 C 314.898438 108.277344 313.585938 106.207031 312.21875 104.164062 C 310.855469 102.125 309.445312 100.117188 307.980469 98.144531 C 306.519531 96.171875 305.007812 94.238281 303.453125 92.339844 C 301.894531 90.445312 300.292969 88.585938 298.644531 86.765625 C 296.992188 84.945312 295.300781 83.167969 293.566406 81.433594 C 291.832031 79.699219 290.050781 78.007812 288.234375 76.355469 C 286.414062 74.707031 284.554688 73.105469 282.660156 71.546875 C 280.761719 69.992188 278.828125 68.480469 276.855469 67.019531 C 274.882812 65.554688 272.875 64.144531 270.835938 62.78125 C 268.792969 61.414062 266.722656 60.101562 264.617188 58.839844 C 262.511719 57.578125 260.375 56.367188 258.210938 55.210938 C 256.042969 54.054688 253.851562 52.953125 251.632812 51.902344 C 249.414062 50.851562 247.171875 49.859375 244.902344 48.917969 C 242.632812 47.980469 240.34375 47.09375 238.035156 46.269531 C 235.722656 45.441406 233.390625 44.671875 231.042969 43.957031 C 228.695312 43.246094 226.328125 42.589844 223.945312 41.996094 C 221.566406 41.398438 219.171875 40.859375 216.761719 40.382812 C 214.355469 39.902344 211.9375 39.484375 209.507812 39.125 C 207.082031 38.761719 204.644531 38.464844 202.203125 38.222656 C 199.757812 37.980469 197.3125 37.800781 194.859375 37.679688 C 192.410156 37.558594 189.953125 37.5 187.5 37.5 Z M 187.5 37.5 "/>
<path style=" stroke:none;fill-rule:nonzero;fill:rgb(96.078491%,92.939758%,88.62915%);fill-opacity:1;" d="M 242.667969 154.960938 L 238.902344 152.691406 L 246.492188 140.210938 L 252.523438 146.964844 L 256.9375 139.515625 L 262.121094 146.726562 L 267.011719 139.738281 L 275.488281 150.863281 L 271.976562 153.515625 L 267.160156 147.203125 L 262.175781 154.339844 L 257.304688 147.550781 L 253.242188 154.375 L 247.175781 147.585938 Z M 242.667969 154.960938 "/>
<path style=" stroke:none;fill-rule:nonzero;fill:rgb(96.078491%,92.939758%,88.62915%);fill-opacity:1;" d="M 100.515625 154.960938 L 96.746094 152.691406 L 104.339844 140.210938 L 110.371094 146.964844 L 114.785156 139.515625 L 119.96875 146.726562 L 124.859375 139.738281 L 133.335938 150.863281 L 129.824219 153.515625 L 125.007812 147.203125 L 120.023438 154.339844 L 115.152344 147.550781 L 111.089844 154.375 L 105.019531 147.585938 Z M 100.515625 154.960938 "/>
<g clip-path="url(#clip1)" clip-rule="nonzero">
<path style=" stroke:none;fill-rule:nonzero;fill:rgb(96.078491%,92.939758%,88.62915%);fill-opacity:1;" d="M 190.878906 212.574219 C 192.007812 211.515625 192.660156 209.980469 192.660156 208.371094 L 192.660156 187.5625 L 182.160156 187.5625 L 182.160156 208.371094 C 182.160156 209.980469 182.8125 211.515625 183.941406 212.574219 C 185.925781 214.433594 188.890625 214.433594 190.878906 212.574219 Z M 190.878906 212.574219 "/>
</g>
<g clip-path="url(#clip2)" clip-rule="nonzero">
<path style=" stroke:none;fill-rule:nonzero;fill:rgb(96.078491%,92.939758%,88.62915%);fill-opacity:1;" d="M 168.726562 257.601562 C 168.726562 268.0625 177.136719 276.578125 187.476562 276.578125 C 197.816406 276.578125 206.226562 268.0625 206.226562 257.601562 C 206.226562 257.015625 205.757812 256.542969 205.179688 256.542969 L 169.773438 256.542969 C 169.195312 256.542969 168.726562 257.015625 168.726562 257.601562 Z M 204.105469 258.660156 C 203.5625 267.464844 196.3125 274.460938 187.476562 274.460938 C 178.640625 274.460938 171.390625 267.464844 170.851562 258.660156 Z M 204.105469 258.660156 "/>
</g>
<path style=" stroke:none;fill-rule:nonzero;fill:rgb(96.078491%,92.939758%,88.62915%);fill-opacity:1;" d="M 106.328125 237.453125 C 105.699219 237.453125 105.078125 237.515625 104.460938 237.636719 C 103.84375 237.761719 103.242188 237.941406 102.660156 238.183594 C 102.082031 238.425781 101.527344 238.71875 101.003906 239.070312 C 100.480469 239.417969 99.996094 239.816406 99.550781 240.261719 C 99.105469 240.707031 98.710938 241.191406 98.359375 241.714844 C 98.011719 242.238281 97.714844 242.789062 97.472656 243.371094 C 97.234375 243.953125 97.050781 244.550781 96.929688 245.167969 C 96.804688 245.785156 96.746094 246.410156 96.746094 247.039062 C 96.746094 247.667969 96.804688 248.289062 96.929688 248.90625 C 97.050781 249.527344 97.234375 250.125 97.472656 250.707031 C 97.714844 251.289062 98.011719 251.839844 98.359375 252.363281 C 98.710938 252.886719 99.105469 253.371094 99.550781 253.816406 C 99.996094 254.261719 100.480469 254.65625 101.003906 255.007812 C 101.527344 255.355469 102.082031 255.652344 102.660156 255.894531 C 103.242188 256.132812 103.84375 256.316406 104.460938 256.4375 C 105.078125 256.5625 105.699219 256.621094 106.328125 256.621094 C 106.957031 256.621094 107.582031 256.5625 108.199219 256.4375 C 108.816406 256.316406 109.414062 256.132812 109.996094 255.894531 C 110.578125 255.652344 111.128906 255.355469 111.652344 255.007812 C 112.175781 254.65625 112.660156 254.261719 113.105469 253.816406 C 113.550781 253.371094 113.949219 252.886719 114.296875 252.363281 C 114.648438 251.839844 114.941406 251.289062 115.183594 250.707031 C 115.425781 250.125 115.605469 249.527344 115.730469 248.90625 C 115.851562 248.289062 115.914062 247.667969 115.914062 247.039062 C 115.914062 246.410156 115.851562 245.785156 115.730469 245.167969 C 115.605469 244.550781 115.425781 243.953125 115.183594 243.371094 C 114.941406 242.789062 114.648438 242.238281 114.296875 241.714844 C 113.949219 241.191406 113.550781 240.707031 113.105469 240.261719 C 112.660156 239.816406 112.175781 239.417969 111.652344 239.070312 C 111.128906 238.71875 110.578125 238.425781 109.996094 238.183594 C 109.414062 237.941406 108.816406 237.761719 108.199219 237.636719 C 107.582031 237.515625 106.957031 237.453125 106.328125 237.453125 Z M 106.328125 237.453125 "/>
<path style=" stroke:none;fill-rule:nonzero;fill:rgb(96.078491%,92.939758%,88.62915%);fill-opacity:1;" d="M 265.90625 237.453125 C 265.277344 237.453125 264.652344 237.515625 264.035156 237.636719 C 263.417969 237.761719 262.820312 237.941406 262.238281 238.183594 C 261.65625 238.425781 261.105469 238.71875 260.582031 239.070312 C 260.058594 239.417969 259.574219 239.816406 259.128906 240.261719 C 258.683594 240.707031 258.285156 241.191406 257.9375 241.714844 C 257.585938 242.238281 257.292969 242.789062 257.050781 243.371094 C 256.8125 243.953125 256.628906 244.550781 256.507812 245.167969 C 256.382812 245.785156 256.320312 246.410156 256.320312 247.039062 C 256.320312 247.667969 256.382812 248.289062 256.507812 248.90625 C 256.628906 249.527344 256.8125 250.125 257.050781 250.707031 C 257.292969 251.289062 257.585938 251.839844 257.9375 252.363281 C 258.285156 252.886719 258.683594 253.371094 259.128906 253.816406 C 259.574219 254.261719 260.058594 254.65625 260.582031 255.007812 C 261.105469 255.355469 261.65625 255.652344 262.238281 255.894531 C 262.820312 256.132812 263.417969 256.316406 264.035156 256.4375 C 264.652344 256.5625 265.277344 256.621094 265.90625 256.621094 C 266.535156 256.621094 267.160156 256.5625 267.777344 256.4375 C 268.394531 256.316406 268.992188 256.132812 269.574219 255.894531 C 270.15625 255.652344 270.707031 255.355469 271.230469 255.007812 C 271.753906 254.65625 272.238281 254.261719 272.683594 253.816406 C 273.128906 253.371094 273.527344 252.886719 273.875 252.363281 C 274.226562 251.839844 274.519531 251.289062 274.761719 250.707031 C 275 250.125 275.183594 249.527344 275.304688 248.90625 C 275.429688 248.289062 275.492188 247.667969 275.492188 247.039062 C 275.492188 246.410156 275.429688 245.785156 275.304688 245.167969 C 275.183594 244.550781 275 243.953125 274.761719 243.371094 C 274.519531 242.789062 274.226562 242.238281 273.875 241.714844 C 273.527344 241.191406 273.128906 240.707031 272.683594 240.261719 C 272.238281 239.816406 271.753906 239.417969 271.230469 239.070312 C 270.707031 238.71875 270.15625 238.425781 269.574219 238.183594 C 268.992188 237.941406 268.394531 237.761719 267.777344 237.636719 C 267.160156 237.515625 266.535156 237.453125 265.90625 237.453125 Z M 265.90625 237.453125 "/>
</g>
</svg>
